<?xml version="1.0" encoding="utf-8"?><svg xml:space="preserve" viewBox="0 0 100 100" y="0" x="0" xmlns="http://www.w3.org/2000/svg" id="圖層_1" version="1.1" width="200px" height="200px" xmlns:xlink="http://www.w3.org/1999/xlink" style="width:100%;height:100%;animation-play-state:paused" ><g class="ldl-scale" style="transform-origin:50% 50% 0px;transform:rotate(0deg) scale(0.8);animation-play-state:paused" ><path stroke-miterlimit="10" stroke-linejoin="round" stroke-linecap="round" stroke-width="3.5" stroke="#333" fill="#e15b64" d="M79.5 85.46h-59a5.96 5.96 0 0 1-5.96-5.96v-59a5.96 5.96 0 0 1 5.96-5.96h59a5.96 5.96 0 0 1 5.96 5.96v59a5.96 5.96 0 0 1-5.96 5.96z" style="stroke:rgb(88, 88, 114);fill:rgb(149, 213, 238);animation-play-state:paused" ></path>
<path d="M45.125 14.54h10v70.92h-10z" stroke-miterlimit="10" stroke-linejoin="round" stroke-linecap="round" stroke-width="3.5" stroke="#333" fill="#f8b26a" style="stroke:rgb(88, 88, 114);fill:rgb(255, 182, 187);animation-play-state:paused" ></path>
<path d="M14.665 55V45h70.92v10z" stroke-miterlimit="10" stroke-linejoin="round" stroke-linecap="round" stroke-width="3.5" stroke="#333" fill="#f8b26a" style="stroke:rgb(88, 88, 114);fill:rgb(255, 182, 187);animation-play-state:paused" ></path>
<path stroke-miterlimit="10" stroke-linejoin="round" stroke-linecap="round" stroke-width="3.5" stroke="#333" fill="#f47e60" d="M74.293 35.924c3.551 5.457-19.987 16.913-22.282 13.386l-1.861-2.86c-3.07-4.717 16.514-22.25 21.264-14.951l2.879 4.425z" style="stroke:rgb(88, 88, 114);fill:rgb(255, 230, 145);animation-play-state:paused" ></path>
<path stroke-miterlimit="10" stroke-linejoin="round" stroke-linecap="round" stroke-width="3.5" stroke="#333" fill="#f47e60" d="M25.707 35.924c-3.551 5.457 19.987 16.913 22.282 13.386l1.861-2.86c3.07-4.718-16.513-22.251-21.263-14.951l-2.88 4.425z" style="stroke:rgb(88, 88, 114);fill:rgb(255, 230, 145);animation-play-state:paused" ></path>
<path d="M31.916 75.557l-.556-8.067-7.878-1.824 22.714-16.74 5.839 6.848z" stroke-miterlimit="10" stroke-linejoin="round" stroke-linecap="round" stroke-width="3.5" stroke="#333" fill="#f47e60" style="stroke:rgb(88, 88, 114);fill:rgb(255, 230, 145);animation-play-state:paused" ></path>
<path d="M68.084 75.557l.556-8.067 7.878-1.824-22.714-16.74-5.839 6.848z" stroke-miterlimit="10" stroke-linejoin="round" stroke-linecap="round" stroke-width="3.5" stroke="#333" fill="#f47e60" style="stroke:rgb(88, 88, 114);fill:rgb(255, 230, 145);animation-play-state:paused" ></path>
<path stroke-miterlimit="10" stroke-linejoin="round" stroke-linecap="round" stroke-width="3.5" stroke="#333" fill="#f47e60" d="M51.345 59.042h-1.792a4.103 4.103 0 0 1-4.104-4.104v-6.876a4.103 4.103 0 0 1 4.104-4.104h1.792a4.103 4.103 0 0 1 4.104 4.104v6.876a4.104 4.104 0 0 1-4.104 4.104z" style="stroke:rgb(88, 88, 114);fill:rgb(255, 230, 145);animation-play-state:paused" ></path>
<metadata xmlns:d="https://loading.io/stock/" style="animation-play-state:paused" ><d:name style="animation-play-state:paused" >gift</d:name>


<d:tags style="animation-play-state:paused" >gift,present,giveaway,free,birthday,box,ribbon,souvenir,handsel,award,bonus,benefit</d:tags>


<d:license style="animation-play-state:paused" >by</d:license>


<d:slug style="animation-play-state:paused" >nzrdo6</d:slug></metadata></g><!-- generated by https://loading.io/ --></svg>