<?xml version="1.0" encoding="utf-8"?><svg xml:space="preserve" viewBox="0 0 100 100" y="0px" x="0px" xmlns:xlink="http://www.w3.org/1999/xlink" xmlns="http://www.w3.org/2000/svg" id="圖層_1" version="1.1" width="200px" height="200px" style="width:100%;height:100%;animation-play-state:paused" ><g class="ldl-scale" style="transform-origin:50% 50% 0px;transform:rotate(0deg) scale(0.8);animation-play-state:paused" ><g style="animation-play-state:paused" ><path d="M80.6,43.1c0-17.6-14.8-31.7-32.6-30.6c-14.7,0.9-26.9,12.6-28.5,27.2c-1.7,16.4,9.5,30.5,24.7,33.4L49,86.9c0.3,0.8,1.5,0.8,1.8,0 l4.7-13.7C69.8,70.6,80.6,58.1,80.6,43.1z" stroke-miterlimit="10" stroke-linejoin="round" stroke-linecap="round" stroke-width="3.5" stroke="#333435" fill="#C33837" style="stroke:rgb(51, 52, 53);fill:rgb(195, 56, 55);animation-play-state:paused" ></path></g>
<path d="M65.9,39.9c0,11.7-15.9,20-15.9,20s-15.9-8.2-15.9-20S50,28.3,50,39.5C50,28.5,65.9,28.2,65.9,39.9z" stroke-miterlimit="10" stroke-linejoin="round" stroke-linecap="round" stroke-width="3.5" stroke="#333435" fill="#FFFFFF" style="stroke:rgb(51, 52, 53);fill:rgb(255, 255, 255);animation-play-state:paused" ></path>
<metadata xmlns:d="https://loading.io/stock/" style="animation-play-state:paused" ><d:name style="animation-play-state:paused" >point of interest</d:name>


<d:tags style="animation-play-state:paused" >heart,like,favor,love,mark,gps,location</d:tags>


<d:license style="animation-play-state:paused" >by</d:license>


<d:slug style="animation-play-state:paused" >h0q47x</d:slug></metadata></g><!-- generated by https://loading.io/ --></svg>